MutatorSansInstance_400-800.ufo
<glyph name="comma" format="2">
  <advance width="279"/>
  <unicode hex="002C"/>
  <outline>
    <contour>
      <point x="193" y="0" type="line"/>
      <point x="193" y="240" type="line"/>
      <point x="87" y="240" type="line"/>
      <point x="87" y="0" type="line"/>
      <point x="138" y="-11" type="line"/>
      <point x="128" y="12" type="line"/>
      <point x="106" y="-113" type="line"/>
      <point x="142" y="-115" type="line"/>
    </contour>
  </outline>
</glyph>
<glyph name="period" format="2">
  <advance width="279"/>
  <unicode hex="002E"/>
  <outline>
    <contour>
      <point x="86" y="0" type="line"/>
      <point x="192" y="0" type="line"/>
      <point x="192" y="240" type="line"/>
      <point x="86" y="240" type="line"/>
    </contour>
  </outline>
</glyph>
<glyph name="A" format="2">
  <advance width="1096"/>
  <unicode hex="0041"/>
  <outline>
    <contour>
      <point x="38" y="0" type="line"/>
      <point x="191" y="0" type="line"/>
      <point x="553" y="740" type="line"/>
      <point x="422" y="740" type="line"/>
    </contour>
    <contour>
      <point x="207" y="175" type="line"/>
      <point x="845" y="175" type="line"/>
      <point x="845" y="281" type="line"/>
      <point x="207" y="281" type="line"/>
    </contour>
    <contour>
      <point x="854" y="0" type="line"/>
      <point x="1062" y="0" type="line"/>
      <point x="678" y="740" type="line"/>
      <point x="481" y="740" type="line"/>
    </contour>
    <contour>
      <point x="446" y="614" type="line"/>
      <point x="634" y="614" type="line"/>
      <point x="634" y="740" type="line"/>
      <point x="446" y="740" type="line"/>
    </contour>
  </outline>
</glyph>
<glyph name="B" format="2">
  <advance width="1089"/>
  <unicode hex="0042"/>
  <outline>
    <contour>
      <point x="86" y="0" type="line"/>
      <point x="270" y="0" type="line"/>
      <point x="270" y="740" type="line"/>
      <point x="86" y="740" type="line"/>
    </contour>
    <contour>
      <point x="243" y="335" type="line"/>
      <point x="725" y="335" type="line" smooth="yes"/>
      <point x="811" y="335"/>
      <point x="856" y="294"/>
      <point x="856" y="225" type="curve" smooth="yes"/>
      <point x="856" y="157"/>
      <point x="811" y="117"/>
      <point x="724" y="117" type="curve" smooth="yes"/>
      <point x="243" y="117" type="line"/>
      <point x="243" y="0" type="line"/>
      <point x="778" y="0" type="line" smooth="yes"/>
      <point x="975" y="0"/>
      <point x="1039" y="87"/>
      <point x="1039" y="202" type="curve" smooth="yes"/>
      <point x="1039" y="306"/>
      <point x="980" y="375"/>
      <point x="869" y="391" type="curve"/>
      <point x="852" y="358" type="line"/>
      <point x="938" y="379"/>
      <point x="997" y="441"/>
      <point x="997" y="535" type="curve" smooth="yes"/>
      <point x="997" y="655"/>
      <point x="928" y="740"/>
      <point x="728" y="740" type="curve" smooth="yes"/>
      <point x="243" y="740" type="line"/>
      <point x="243" y="628" type="line"/>
      <point x="682" y="628" type="line" smooth="yes"/>
      <point x="772" y="628"/>
      <point x="815" y="588"/>
      <point x="815" y="521" type="curve" smooth="yes"/>
      <point x="815" y="449"/>
      <point x="770" y="412"/>
      <point x="682" y="412" type="curve" smooth="yes"/>
      <point x="243" y="412" type="line"/>
    </contour>
  </outline>
</glyph>
<glyph name="C" format="2">
  <advance width="1191"/>
  <unicode hex="0043"/>
  <outline>
    <contour>
      <point x="948" y="311" type="line"/>
      <point x="922" y="173"/>
      <point x="804" y="117"/>
      <point x="627" y="117" type="curve" smooth="yes"/>
      <point x="571" y="117" type="line" smooth="yes"/>
      <point x="372" y="117"/>
      <point x="247" y="191"/>
      <point x="247" y="372" type="curve" smooth="yes"/>
      <point x="247" y="551"/>
      <point x="372" y="623"/>
      <point x="571" y="623" type="curve" smooth="yes"/>
      <point x="627" y="623" type="line" smooth="yes"/>
      <point x="802" y="623"/>
      <point x="920" y="569"/>
      <point x="947" y="437" type="curve"/>
      <point x="1131" y="456" type="line"/>
      <point x="1093" y="657"/>
      <point x="913" y="750"/>
      <point x="645" y="750" type="curve" smooth="yes"/>
      <point x="553" y="750" type="line" smooth="yes"/>
      <point x="249" y="750"/>
      <point x="59" y="631"/>
      <point x="59" y="372" type="curve" smooth="yes"/>
      <point x="59" y="112"/>
      <point x="249" y="-10"/>
      <point x="553" y="-10" type="curve" smooth="yes"/>
      <point x="645" y="-10" type="line" smooth="yes"/>
      <point x="914" y="-10"/>
      <point x="1095" y="87"/>
      <point x="1132" y="292" type="curve"/>
    </contour>
  </outline>
</glyph>
<glyph name="D" format="2">
  <advance width="1083"/>
  <unicode hex="0044"/>
  <outline>
    <contour>
      <point x="86" y="0" type="line"/>
      <point x="268" y="0" type="line"/>
      <point x="268" y="740" type="line"/>
      <point x="86" y="740" type="line"/>
    </contour>
    <contour>
      <point x="236" y="617" type="line"/>
      <point x="506" y="617" type="line" smooth="yes"/>
      <point x="708" y="617"/>
      <point x="836" y="551"/>
      <point x="836" y="372" type="curve" smooth="yes"/>
      <point x="836" y="191"/>
      <point x="708" y="123"/>
      <point x="506" y="123" type="curve" smooth="yes"/>
      <point x="236" y="123" type="line"/>
      <point x="236" y="0" type="line"/>
      <point x="523" y="0" type="line" smooth="yes"/>
      <point x="830" y="0"/>
      <point x="1024" y="113"/>
      <point x="1024" y="372" type="curve" smooth="yes"/>
      <point x="1024" y="630"/>
      <point x="830" y="740"/>
      <point x="523" y="740" type="curve" smooth="yes"/>
      <point x="236" y="740" type="line"/>
    </contour>
  </outline>
</glyph>
<glyph name="E" format="2">
  <advance width="1009"/>
  <unicode hex="0045"/>
  <anchor x="491" y="784" name="top"/>
  <outline>
    <contour>
      <point x="87" y="0" type="line"/>
      <point x="269" y="0" type="line"/>
      <point x="269" y="740" type="line"/>
      <point x="87" y="740" type="line"/>
    </contour>
    <contour>
      <point x="135" y="610" type="line"/>
      <point x="925" y="610" type="line"/>
      <point x="925" y="740" type="line"/>
      <point x="135" y="740" type="line"/>
    </contour>
    <contour>
      <point x="135" y="0" type="line"/>
      <point x="925" y="0" type="line"/>
      <point x="925" y="130" type="line"/>
      <point x="135" y="130" type="line"/>
    </contour>
    <contour>
      <point x="135" y="326" type="line"/>
      <point x="794" y="326" type="line"/>
      <point x="794" y="416" type="line"/>
      <point x="135" y="416" type="line"/>
    </contour>
  </outline>
</glyph>
<glyph name="F" format="2">
  <advance width="1032"/>
  <unicode hex="0046"/>
  <outline>
    <contour>
      <point x="86" y="0" type="line"/>
      <point x="270" y="0" type="line"/>
      <point x="270" y="740" type="line"/>
      <point x="86" y="740" type="line"/>
    </contour>
    <contour>
      <point x="135" y="612" type="line"/>
      <point x="946" y="612" type="line"/>
      <point x="946" y="740" type="line"/>
      <point x="135" y="740" type="line"/>
    </contour>
    <contour>
      <point x="135" y="276" type="line"/>
      <point x="896" y="276" type="line"/>
      <point x="896" y="388" type="line"/>
      <point x="135" y="388" type="line"/>
    </contour>
  </outline>
</glyph>
<glyph name="G" format="2">
  <advance width="1237"/>
  <unicode hex="0047"/>
  <outline>
    <contour>
      <point x="494" y="305" type="line"/>
      <point x="976" y="305" type="line"/>
      <point x="976" y="216" type="line"/>
      <point x="1058" y="0" type="line"/>
      <point x="1157" y="0" type="line"/>
      <point x="1157" y="366" type="line"/>
      <point x="494" y="366" type="line"/>
    </contour>
    <contour>
      <point x="974" y="316" type="line"/>
      <point x="947" y="177"/>
      <point x="829" y="117"/>
      <point x="651" y="117" type="curve" smooth="yes"/>
      <point x="571" y="117" type="line" smooth="yes"/>
      <point x="372" y="117"/>
      <point x="247" y="191"/>
      <point x="247" y="372" type="curve" smooth="yes"/>
      <point x="247" y="551"/>
      <point x="373" y="623"/>
      <point x="574" y="623" type="curve" smooth="yes"/>
      <point x="654" y="623" type="line" smooth="yes"/>
      <point x="829" y="623"/>
      <point x="946" y="569"/>
      <point x="973" y="437" type="curve"/>
      <point x="1154" y="456" type="line"/>
      <point x="1116" y="657"/>
      <point x="937" y="750"/>
      <point x="670" y="750" type="curve" smooth="yes"/>
      <point x="555" y="750" type="line" smooth="yes"/>
      <point x="250" y="750"/>
      <point x="59" y="631"/>
      <point x="59" y="372" type="curve" smooth="yes"/>
      <point x="59" y="112"/>
      <point x="249" y="-10"/>
      <point x="553" y="-10" type="curve" smooth="yes"/>
      <point x="611" y="-10" type="line" smooth="yes"/>
      <point x="880" y="-10"/>
      <point x="1054" y="90"/>
      <point x="1090" y="298" type="curve"/>
    </contour>
  </outline>
</glyph>
<glyph name="H" format="2">
  <advance width="1098"/>
  <unicode hex="0048"/>
  <outline>
    <contour>
      <point x="86" y="0" type="line"/>
      <point x="270" y="0" type="line"/>
      <point x="270" y="740" type="line"/>
      <point x="86" y="740" type="line"/>
    </contour>
    <contour>
      <point x="163" y="308" type="line"/>
      <point x="938" y="308" type="line"/>
      <point x="938" y="433" type="line"/>
      <point x="163" y="433" type="line"/>
    </contour>
    <contour>
      <point x="827" y="0" type="line"/>
      <point x="1011" y="0" type="line"/>
      <point x="1011" y="740" type="line"/>
      <point x="827" y="740" type="line"/>
    </contour>
  </outline>
</glyph>
<glyph name="I" format="2">
  <advance width="856"/>
  <unicode hex="0049"/>
  <outline>
    <contour>
      <point x="338" y="0" type="line"/>
      <point x="522" y="0" type="line"/>
      <point x="522" y="740" type="line"/>
      <point x="338" y="740" type="line"/>
    </contour>
    <contour>
      <point x="86" y="610" type="line"/>
      <point x="770" y="610" type="line"/>
      <point x="770" y="740" type="line"/>
      <point x="86" y="740" type="line"/>
    </contour>
    <contour>
      <point x="86" y="0" type="line"/>
      <point x="770" y="0" type="line"/>
      <point x="770" y="130" type="line"/>
      <point x="86" y="130" type="line"/>
    </contour>
  </outline>
</glyph>
<glyph name="J" format="2">
  <advance width="804"/>
  <unicode hex="004A"/>
  <outline>
    <contour>
      <point x="242" y="-10" type="curve" smooth="yes"/>
      <point x="534" y="-10"/>
      <point x="717" y="109"/>
      <point x="717" y="362" type="curve" smooth="yes"/>
      <point x="717" y="740" type="line"/>
      <point x="529" y="740" type="line"/>
      <point x="529" y="376" type="line" smooth="yes"/>
      <point x="529" y="201"/>
      <point x="418" y="128"/>
      <point x="239" y="128" type="curve" smooth="yes"/>
      <point x="200" y="128"/>
      <point x="155" y="132"/>
      <point x="112" y="141" type="curve"/>
      <point x="86" y="4" type="line"/>
      <point x="134" y="-6"/>
      <point x="186" y="-10"/>
    </contour>
  </outline>
</glyph>
<glyph name="K" format="2">
  <advance width="1027"/>
  <unicode hex="004B"/>
  <outline>
    <contour>
      <point x="86" y="0" type="line"/>
      <point x="270" y="0" type="line"/>
      <point x="270" y="740" type="line"/>
      <point x="86" y="740" type="line"/>
    </contour>
    <contour>
      <point x="203" y="306" type="line"/>
      <point x="311" y="306" type="line"/>
      <point x="731" y="0" type="line"/>
      <point x="978" y="0" type="line"/>
      <point x="454" y="414" type="line"/>
      <point x="320" y="383" type="line"/>
      <point x="203" y="383" type="line"/>
    </contour>
    <contour>
      <point x="289" y="363" type="line"/>
      <point x="400" y="313" type="line"/>
      <point x="973" y="740" type="line"/>
      <point x="755" y="740" type="line"/>
    </contour>
  </outline>
</glyph>
<glyph name="L" format="2">
  <advance width="896"/>
  <unicode hex="004C"/>
  <outline>
    <contour>
      <point x="86" y="0" type="line"/>
      <point x="270" y="0" type="line"/>
      <point x="270" y="740" type="line"/>
      <point x="86" y="740" type="line"/>
    </contour>
    <contour>
      <point x="135" y="0" type="line"/>
      <point x="866" y="0" type="line"/>
      <point x="866" y="131" type="line"/>
      <point x="135" y="131" type="line"/>
    </contour>
  </outline>
</glyph>
<glyph name="M" format="2">
  <advance width="1152"/>
  <unicode hex="004D"/>
  <outline>
    <contour>
      <point x="86" y="0" type="line"/>
      <point x="233" y="0" type="line"/>
      <point x="233" y="740" type="line"/>
      <point x="86" y="740" type="line"/>
    </contour>
    <contour>
      <point x="1066" y="0" type="line"/>
      <point x="1066" y="740" type="line"/>
      <point x="919" y="740" type="line"/>
      <point x="919" y="0" type="line"/>
    </contour>
    <contour>
      <point x="979" y="560" type="line"/>
      <point x="919" y="740" type="line"/>
      <point x="554" y="385" type="line"/>
      <point x="598" y="385" type="line"/>
      <point x="233" y="740" type="line"/>
      <point x="174" y="560" type="line"/>
      <point x="542" y="204" type="line"/>
      <point x="610" y="204" type="line"/>
    </contour>
  </outline>
</glyph>
<glyph name="N" format="2">
  <advance width="1109"/>
  <unicode hex="004E"/>
  <outline>
    <contour>
      <point x="86" y="0" type="line"/>
      <point x="232" y="0" type="line"/>
      <point x="232" y="740" type="line"/>
      <point x="86" y="740" type="line"/>
    </contour>
    <contour>
      <point x="170" y="583" type="line"/>
      <point x="876" y="0" type="line"/>
      <point x="939" y="157" type="line"/>
      <point x="232" y="740" type="line"/>
    </contour>
    <contour>
      <point x="877" y="0" type="line"/>
      <point x="1022" y="0" type="line"/>
      <point x="1022" y="740" type="line"/>
      <point x="877" y="740" type="line"/>
    </contour>
  </outline>
</glyph>
<glyph name="O" format="2">
  <advance width="1204"/>
  <unicode hex="004F"/>
  <outline>
    <contour>
      <point x="553" y="-10" type="curve" smooth="yes"/>
      <point x="650" y="-10" type="line" smooth="yes"/>
      <point x="953" y="-10"/>
      <point x="1145" y="112"/>
      <point x="1145" y="372" type="curve" smooth="yes"/>
      <point x="1145" y="631"/>
      <point x="953" y="750"/>
      <point x="650" y="750" type="curve" smooth="yes"/>
      <point x="553" y="750" type="line" smooth="yes"/>
      <point x="249" y="750"/>
      <point x="59" y="631"/>
      <point x="59" y="372" type="curve" smooth="yes"/>
      <point x="59" y="112"/>
      <point x="249" y="-10"/>
    </contour>
    <contour>
      <point x="571" y="117" type="line" smooth="yes"/>
      <point x="372" y="117"/>
      <point x="247" y="191"/>
      <point x="247" y="372" type="curve" smooth="yes"/>
      <point x="247" y="551"/>
      <point x="372" y="623"/>
      <point x="571" y="623" type="curve" smooth="yes"/>
      <point x="632" y="623" type="line" smooth="yes"/>
      <point x="832" y="623"/>
      <point x="957" y="551"/>
      <point x="957" y="372" type="curve" smooth="yes"/>
      <point x="957" y="191"/>
      <point x="832" y="117"/>
      <point x="632" y="117" type="curve" smooth="yes"/>
    </contour>
  </outline>
</glyph>
<glyph name="P" format="2">
  <advance width="1022"/>
  <unicode hex="0050"/>
  <outline>
    <contour>
      <point x="86" y="0" type="line"/>
      <point x="270" y="0" type="line"/>
      <point x="270" y="740" type="line"/>
      <point x="86" y="740" type="line"/>
    </contour>
    <contour>
      <point x="198" y="604" type="line"/>
      <point x="581" y="604" type="line" smooth="yes"/>
      <point x="765" y="604"/>
      <point x="823" y="547"/>
      <point x="823" y="444" type="curve" smooth="yes"/>
      <point x="823" y="338"/>
      <point x="765" y="283"/>
      <point x="581" y="283" type="curve" smooth="yes"/>
      <point x="198" y="283" type="line"/>
      <point x="198" y="147" type="line"/>
      <point x="566" y="147" type="line" smooth="yes"/>
      <point x="905" y="147"/>
      <point x="991" y="264"/>
      <point x="991" y="444" type="curve" smooth="yes"/>
      <point x="991" y="624"/>
      <point x="905" y="740"/>
      <point x="567" y="740" type="curve" smooth="yes"/>
      <point x="198" y="740" type="line"/>
    </contour>
  </outline>
</glyph>
<glyph name="Q" format="2">
  <advance width="1204"/>
  <unicode hex="0051"/>
  <outline>
    <contour>
      <point x="591" y="-130" type="line"/>
      <point x="777" y="-130" type="line"/>
      <point x="664" y="76" type="line"/>
      <point x="488" y="65" type="line"/>
    </contour>
    <component base="O"/>
  </outline>
</glyph>
<glyph name="R" format="2">
  <advance width="1053"/>
  <unicode hex="0052"/>
  <outline>
    <contour>
      <point x="781" y="0" type="line"/>
      <point x="982" y="0" type="line"/>
      <point x="887" y="106" type="line" smooth="yes"/>
      <point x="827" y="169"/>
      <point x="782" y="205"/>
      <point x="724" y="204" type="curve"/>
      <point x="604" y="204" type="line"/>
    </contour>
    <contour>
      <point x="86" y="0" type="line"/>
      <point x="270" y="0" type="line"/>
      <point x="270" y="740" type="line"/>
      <point x="86" y="740" type="line"/>
    </contour>
    <contour>
      <point x="198" y="604" type="line"/>
      <point x="587" y="604" type="line" smooth="yes"/>
      <point x="765" y="604"/>
      <point x="822" y="547"/>
      <point x="822" y="444" type="curve" smooth="yes"/>
      <point x="822" y="338"/>
      <point x="765" y="283"/>
      <point x="587" y="283" type="curve" smooth="yes"/>
      <point x="198" y="283" type="line"/>
      <point x="198" y="171" type="line"/>
      <point x="568" y="171" type="line" smooth="yes"/>
      <point x="905" y="171"/>
      <point x="992" y="284"/>
      <point x="992" y="456" type="curve" smooth="yes"/>
      <point x="992" y="628"/>
      <point x="904" y="740"/>
      <point x="568" y="740" type="curve" smooth="yes"/>
      <point x="198" y="740" type="line"/>
    </contour>
  </outline>
</glyph>
<glyph name="S" format="2">
  <advance width="1065"/>
  <unicode hex="0053"/>
  <outline>
    <contour>
      <point x="996" y="212" type="curve" smooth="yes"/>
      <point x="996" y="366"/>
      <point x="903" y="418"/>
      <point x="631" y="434" type="curve" smooth="yes"/>
      <point x="472" y="444" type="line" smooth="yes"/>
      <point x="315" y="454"/>
      <point x="241" y="474"/>
      <point x="241" y="536" type="curve" smooth="yes"/>
      <point x="241" y="595"/>
      <point x="310" y="630"/>
      <point x="481" y="630" type="curve" smooth="yes"/>
      <point x="566" y="630" type="line" smooth="yes"/>
      <point x="727" y="630"/>
      <point x="850" y="605"/>
      <point x="944" y="572" type="curve"/>
      <point x="970" y="685" type="line"/>
      <point x="873" y="720"/>
      <point x="725" y="749"/>
      <point x="586" y="749" type="curve" smooth="yes"/>
      <point x="526" y="749" type="line" smooth="yes"/>
      <point x="217" y="749"/>
      <point x="85" y="675"/>
      <point x="85" y="526" type="curve" smooth="yes"/>
      <point x="85" y="385"/>
      <point x="190" y="329"/>
      <point x="450" y="313" type="curve" smooth="yes"/>
      <point x="605" y="303" type="line" smooth="yes"/>
      <point x="768" y="291"/>
      <point x="836" y="277"/>
      <point x="836" y="210" type="curve" smooth="yes"/>
      <point x="836" y="146"/>
      <point x="763" y="110"/>
      <point x="563" y="110" type="curve" smooth="yes"/>
      <point x="481" y="110" type="line" smooth="yes"/>
      <point x="327" y="110"/>
      <point x="196" y="135"/>
      <point x="95" y="170" type="curve"/>
      <point x="71" y="55" type="line"/>
      <point x="177" y="19"/>
      <point x="332" y="-9"/>
      <point x="462" y="-9" type="curve" smooth="yes"/>
      <point x="527" y="-9" type="line" smooth="yes"/>
      <point x="873" y="-9"/>
      <point x="996" y="76"/>
    </contour>
  </outline>
</glyph>
<glyph name="T" format="2">
  <advance width="1053"/>
  <unicode hex="0054"/>
  <outline>
    <contour>
      <point x="434" y="0" type="line"/>
      <point x="618" y="0" type="line"/>
      <point x="618" y="740" type="line"/>
      <point x="434" y="740" type="line"/>
    </contour>
    <contour>
      <point x="31" y="599" type="line"/>
      <point x="1022" y="599" type="line"/>
      <point x="1022" y="740" type="line"/>
      <point x="31" y="740" type="line"/>
    </contour>
  </outline>
</glyph>
<glyph name="U" format="2">
  <advance width="1108"/>
  <unicode hex="0055"/>
  <outline>
    <contour>
      <point x="553" y="-10" type="curve" smooth="yes"/>
      <point x="838" y="-10"/>
      <point x="1012" y="108"/>
      <point x="1012" y="357" type="curve" smooth="yes"/>
      <point x="1012" y="740" type="line"/>
      <point x="824" y="740" type="line"/>
      <point x="824" y="353" type="line" smooth="yes"/>
      <point x="824" y="193"/>
      <point x="720" y="127"/>
      <point x="554" y="127" type="curve" smooth="yes"/>
      <point x="388" y="127"/>
      <point x="284" y="193"/>
      <point x="284" y="353" type="curve" smooth="yes"/>
      <point x="284" y="740" type="line"/>
      <point x="96" y="740" type="line"/>
      <point x="96" y="357" type="line" smooth="yes"/>
      <point x="96" y="108"/>
      <point x="269" y="-10"/>
    </contour>
  </outline>
</glyph>
<glyph name="V" format="2">
  <advance width="1091"/>
  <unicode hex="0056"/>
  <outline>
    <contour>
      <point x="1062" y="740" type="line"/>
      <point x="910" y="740" type="line"/>
      <point x="541" y="0" type="line"/>
      <point x="674" y="0" type="line"/>
    </contour>
    <contour>
      <point x="238" y="740" type="line"/>
      <point x="29" y="740" type="line"/>
      <point x="417" y="0" type="line"/>
      <point x="615" y="0" type="line"/>
    </contour>
    <contour>
      <point x="653" y="126" type="line"/>
      <point x="459" y="126" type="line"/>
      <point x="459" y="0" type="line"/>
      <point x="653" y="0" type="line"/>
    </contour>
  </outline>
</glyph>
<glyph name="W" format="2">
  <advance width="1228"/>
  <unicode hex="0057"/>
  <outline>
    <contour>
      <point x="1197" y="740" type="line"/>
      <point x="1031" y="740" type="line"/>
      <point x="850" y="145" type="line"/>
      <point x="868" y="145" type="line"/>
      <point x="682" y="740" type="line"/>
      <point x="560" y="740" type="line"/>
      <point x="384" y="140" type="line"/>
      <point x="404" y="140" type="line"/>
      <point x="217" y="740" type="line"/>
      <point x="29" y="740" type="line"/>
      <point x="260" y="0" type="line"/>
      <point x="438" y="0" type="line"/>
      <point x="615" y="574" type="line"/>
      <point x="583" y="574" type="line"/>
      <point x="778" y="0" type="line"/>
      <point x="973" y="0" type="line"/>
    </contour>
  </outline>
</glyph>
<glyph name="X" format="2">
  <advance width="1007"/>
  <unicode hex="0058"/>
  <outline>
    <contour>
      <point x="757" y="0" type="line"/>
      <point x="979" y="0" type="line"/>
      <point x="574" y="412" type="line"/>
      <point x="256" y="740" type="line"/>
      <point x="34" y="740" type="line"/>
      <point x="424" y="357" type="line"/>
    </contour>
    <contour>
      <point x="30" y="-1" type="line"/>
      <point x="220" y="0" type="line"/>
      <point x="511" y="336" type="line"/>
      <point x="577" y="338" type="line"/>
      <point x="972" y="740" type="line"/>
      <point x="781" y="740" type="line"/>
      <point x="487" y="417" type="line"/>
      <point x="418" y="413" type="line"/>
    </contour>
  </outline>
</glyph>
<glyph name="Y" format="2">
  <advance width="972"/>
  <unicode hex="0059"/>
  <outline>
    <contour>
      <point x="948" y="740" type="line"/>
      <point x="789" y="740" type="line"/>
      <point x="459" y="204" type="line"/>
      <point x="574" y="190" type="line"/>
    </contour>
    <contour>
      <point x="219" y="740" type="line"/>
      <point x="24" y="740" type="line"/>
      <point x="397" y="190" type="line"/>
      <point x="560" y="204" type="line"/>
    </contour>
    <contour>
      <point x="578" y="275" type="line"/>
      <point x="394" y="275" type="line"/>
      <point x="394" y="0" type="line"/>
      <point x="578" y="0" type="line"/>
    </contour>
  </outline>
</glyph>
<glyph name="Z" format="2">
  <advance width="1090"/>
  <unicode hex="005A"/>
  <outline>
    <contour>
      <point x="86" y="131" type="line"/>
      <point x="302" y="87" type="line"/>
      <point x="1003" y="609" type="line"/>
      <point x="788" y="653" type="line"/>
    </contour>
    <contour>
      <point x="86" y="609" type="line"/>
      <point x="1003" y="609" type="line"/>
      <point x="1003" y="740" type="line"/>
      <point x="86" y="740" type="line"/>
    </contour>
    <contour>
      <point x="86" y="0" type="line"/>
      <point x="1003" y="0" type="line"/>
      <point x="1003" y="131" type="line"/>
      <point x="86" y="131" type="line"/>
    </contour>
  </outline>
</glyph>
